# xmcd CD database file
#
# Track frame offsets:
#	187
#	21277
#	39050
#	62387
#	87700
#	104767
#	130350
#	159972
#	170677
#	184330
#	205937
#	230137
#
# Disc length: 3138 seconds
#
# Revision: 1
# Processed by: cddbd v1.5.2PL0 Copyright (c) Steve Scherf et al.
# Submitted via: CDex 1.70beta2
#
DISCID=a60c400c
DTITLE=Chica Boom - Esencia
DYEAR=1993
DGENRE=Salsa
TTITLE0=朝
TTITLE1=微笑みの約束
TTITLE2=もう想い出に逃げない
TTITLE3=タブー
TTITLE4=ある日、あなたに
TTITLE5=このまま夢の中で
TTITLE6=Esencia
TTITLE7=ドンドコ
TTITLE8=? A donde vamos?
TTITLE9=月になりたい
TTITLE10=ラストダンスは私に
TTITLE11=Yemaya
EXTD=YEAR: 1993
EXTT0=
EXTT1=
EXTT2=
EXTT3=
EXTT4=
EXTT5=
EXTT6=
EXTT7=
EXTT8=
EXTT9=
EXTT10=
EXTT11=
PLAYORDER=
